<svg width="24" height="25" viewBox="0 0 24 25" fill="none" xmlns="http://www.w3.org/2000/svg">
<g clip-path="url(#clip0_44_786)">
<path d="M9 7.67004H6C5.46957 7.67004 4.96086 7.88076 4.58579 8.25583C4.21071 8.6309 4 9.13961 4 9.67004V18.67C4 19.2005 4.21071 19.7092 4.58579 20.0843C4.96086 20.4593 5.46957 20.67 6 20.67H15C15.5304 20.67 16.0391 20.4593 16.4142 20.0843C16.7893 19.7092 17 19.2005 17 18.67V15.67" stroke="#E82C78" stroke-width="2" stroke-linecap="round" stroke-linejoin="round"/>
<path d="M9 15.6701H12L20.5 7.17006C20.8978 6.77223 21.1213 6.23267 21.1213 5.67006C21.1213 5.10745 20.8978 4.56788 20.5 4.17006C20.1022 3.77223 19.5626 3.54874 19 3.54874C18.4374 3.54874 17.8978 3.77223 17.5 4.17006L9 12.6701V15.6701Z" stroke="#E82C78" stroke-width="2" stroke-linecap="round" stroke-linejoin="round"/>
<path d="M16 5.67004L19 8.67004" stroke="#E82C78" stroke-width="2" stroke-linecap="round" stroke-linejoin="round"/>
</g>
<defs>
<clipPath id="clip0_44_786">
<rect width="24" height="24" fill="white" transform="translate(0 0.670044)"/>
</clipPath>
</defs>
</svg>
